<svg width="32" height="32" viewBox="0 0 32 32" fill="none" xmlns="http://www.w3.org/2000/svg">
<path d="M21.8133 18.6667C21.92 17.7867 22 16.9067 22 16C22 15.0933 21.92 14.2133 21.8133 13.3333H26.32C26.5333 14.1867 26.6666 15.08 26.6666 16C26.6666 16.92 26.5333 17.8133 26.32 18.6667M19.4533 26.08C20.2533 24.6 20.8666 23 21.2933 21.3333H25.2266C23.9349 23.5577 21.8854 25.2427 19.4533 26.08ZM19.12 18.6667H12.88C12.7466 17.7867 12.6666 16.9067 12.6666 16C12.6666 15.0933 12.7466 14.2 12.88 13.3333H19.12C19.24 14.2 19.3333 15.0933 19.3333 16C19.3333 16.9067 19.24 17.7867 19.12 18.6667ZM16 26.6133C14.8933 25.0133 14 23.24 13.4533 21.3333H18.5466C18 23.24 17.1066 25.0133 16 26.6133ZM10.6666 10.6667H6.77329C8.05177 8.43629 10.0997 6.74865 12.5333 5.92001C11.7333 7.4 11.1333 9 10.6666 10.6667ZM6.77329 21.3333H10.6666C11.1333 23 11.7333 24.6 12.5333 26.08C10.1048 25.2422 8.05975 23.557 6.77329 21.3333ZM5.67996 18.6667C5.46663 17.8133 5.33329 16.92 5.33329 16C5.33329 15.08 5.46663 14.1867 5.67996 13.3333H10.1866C10.08 14.2133 9.99996 15.0933 9.99996 16C9.99996 16.9067 10.08 17.7867 10.1866 18.6667M16 5.37334C17.1066 6.97334 18 8.76 18.5466 10.6667H13.4533C14 8.76 14.8933 6.97334 16 5.37334ZM25.2266 10.6667H21.2933C20.876 9.01528 20.2581 7.4212 19.4533 5.92001C21.9066 6.76 23.9466 8.45334 25.2266 10.6667ZM16 2.66667C8.62663 2.66667 2.66663 8.66667 2.66663 16C2.66663 19.5362 4.07138 22.9276 6.57187 25.4281C7.80998 26.6662 9.27984 27.6483 10.8975 28.3184C12.5152 28.9885 14.249 29.3333 16 29.3333C19.5362 29.3333 22.9276 27.9286 25.428 25.4281C27.9285 22.9276 29.3333 19.5362 29.3333 16C29.3333 14.249 28.9884 12.5152 28.3184 10.8976C27.6483 9.27988 26.6662 7.81003 25.428 6.57191C24.1899 5.3338 22.7201 4.35167 21.1024 3.68161C19.4847 3.01155 17.7509 2.66667 16 2.66667Z" fill="#6957E7"/>
</svg>
