<svg width="32" height="32" viewBox="0 0 32 32" fill="none" xmlns="http://www.w3.org/2000/svg">
<path d="M6.15333 26.6667C5.54 26.6667 5.028 26.4613 4.61733 26.0507C4.20578 25.6391 4 25.1267 4 24.5133V19.3333H13.3333V21.3333H18.6667V19.3333H28V24.5133C28 25.1267 27.7947 25.6387 27.384 26.0493C26.9724 26.4609 26.46 26.6667 25.8467 26.6667H6.15333ZM14.6667 20V17.3333H17.3333V20H14.6667ZM4 18V11.4867C4 10.8733 4.20578 10.3613 4.61733 9.95067C5.028 9.53911 5.54 9.33333 6.15333 9.33333H12V7.48667C12 6.87333 12.2058 6.36133 12.6173 5.95067C13.028 5.53911 13.54 5.33333 14.1533 5.33333H17.8467C18.46 5.33333 18.9724 5.53911 19.384 5.95067C19.7947 6.36133 20 6.87333 20 7.48667V9.33333H25.8467C26.46 9.33333 26.972 9.53911 27.3827 9.95067C27.7942 10.3613 28 10.8733 28 11.4867V18H18.6667V16H13.3333V18H4ZM13.3333 9.33333H18.6667V7.48667C18.6667 7.28222 18.5813 7.09422 18.4107 6.92267C18.2391 6.752 18.0511 6.66667 17.8467 6.66667H14.1533C13.9489 6.66667 13.7609 6.752 13.5893 6.92267C13.4187 7.09422 13.3333 7.28222 13.3333 7.48667V9.33333Z" fill="#6957E7"/>
</svg>
