<svg width="24" height="24" viewBox="0 0 24 24" fill="none" xmlns="http://www.w3.org/2000/svg">
<path fill-rule="evenodd" clip-rule="evenodd" d="M16.5347 11.5596H22.5233C23.3351 11.5596 24 12.1611 24 12.8954V18.3716C24 19.1059 23.3351 19.7074 22.5233 19.7074H16.5347C14.0585 19.7074 12.0313 17.8735 12.0313 15.6335C12.0313 13.3934 14.0563 11.5596 16.5347 11.5596ZM2.37042 5.12654H6.1916C6.18512 5.02889 6.1808 4.93124 6.1808 4.83164C6.18296 2.16389 8.57282 0 11.524 0C14.473 0 16.865 2.16389 16.865 4.83164C16.865 4.92929 16.8607 5.02693 16.8563 5.12458L18.2618 5.12263C19.6974 5.12068 20.8718 6.13817 20.8718 7.43689V7.82358C21.5799 8.24738 22.0484 8.97388 22.0484 9.79412V10.6456H20.3904V10.0773C20.3904 9.46603 19.8377 8.96802 19.1642 8.96802H3.91185V7.73179C3.91185 7.56774 4.06081 7.43299 4.24215 7.43299H7.02276C6.83925 7.1752 6.68382 6.89983 6.55645 6.61079H2.73959C2.26464 6.61079 1.8782 6.96232 1.8782 7.39002V21.5764C1.8782 22.006 2.2668 22.3556 2.73959 22.3556H19.5161C19.991 22.3556 20.3774 22.0041 20.3774 21.5764V20.6839H22.0786V22.1584H22.0743C22.0678 23.1778 20.8653 24 19.678 24H2.36395C1.06432 23.998 0 23.0352 0 21.8595V7.27089C0 6.0913 1.06647 5.12654 2.37042 5.12654ZM16.4915 6.60884C16.3641 6.89788 16.2087 7.17324 16.0252 7.43104H19.4362C19.5312 7.43104 19.624 7.43494 19.7168 7.44471V7.38807C19.7168 6.95842 19.3282 6.60884 18.8554 6.60884H16.4915ZM11.8802 7.43299V6.9799C12.1544 6.97014 12.3875 6.93694 12.5775 6.88225C12.7675 6.82562 12.9467 6.73773 13.1172 6.6147C13.2856 6.48971 13.4238 6.33737 13.5339 6.15184C13.6418 5.96826 13.6958 5.76516 13.6958 5.54447C13.6958 5.16755 13.5447 4.85703 13.2424 4.61095C13.0136 4.42933 12.5602 4.25551 11.8802 4.09146V3.21263C11.9968 3.26927 12.0788 3.32395 12.1306 3.37863C12.1803 3.43331 12.2364 3.53292 12.3012 3.67548L13.5533 3.49776C13.4734 3.17357 13.2986 2.91968 13.0352 2.73415C12.7696 2.54667 12.3854 2.44121 11.8823 2.41191V2.11311H11.3944V2.41191C10.8439 2.4373 10.4294 2.57206 10.1488 2.81618C9.87029 3.05834 9.72996 3.3591 9.72996 3.7204C9.72996 3.98405 9.79905 4.20669 9.93937 4.39027C10.0797 4.57385 10.2416 4.70665 10.4316 4.79063C10.6216 4.87265 10.9411 4.97225 11.3944 5.08552V6.15966C11.2368 6.0913 11.1246 6.01318 11.0555 5.9253C10.9864 5.83742 10.9324 5.6929 10.8914 5.49369L9.53782 5.63626C9.57884 5.83742 9.63929 6.00928 9.71917 6.15184C9.79905 6.29441 9.91562 6.42721 10.0624 6.54829C10.2114 6.67133 10.3884 6.76898 10.5935 6.83733C10.7986 6.90764 11.0663 6.95451 11.3944 6.9799V7.43299H11.8802ZM11.3923 3.19701C11.2476 3.23997 11.1483 3.2927 11.0922 3.3552C11.0361 3.41769 11.008 3.4919 11.008 3.57783C11.008 3.66572 11.0361 3.74384 11.0944 3.80828C11.1526 3.87468 11.252 3.92937 11.3944 3.97429V3.19701H11.3923ZM11.8802 6.18895C12.0702 6.14989 12.2083 6.08544 12.2968 5.99756C12.3854 5.90968 12.4307 5.81007 12.4307 5.70071C12.4307 5.60501 12.3918 5.51713 12.3184 5.43706C12.2429 5.35699 12.0982 5.28277 11.8802 5.21442V6.18895ZM16.7614 13.0536H22.0743V18.2173H16.7614C15.1919 18.2173 13.9073 17.0553 13.9073 15.6354C13.9073 14.2137 15.1919 13.0536 16.7614 13.0536ZM18.0675 14.78C18.605 14.78 19.0411 15.1745 19.0411 15.6608C19.0411 16.1471 18.605 16.5416 18.0675 16.5416C17.5299 16.5416 17.0938 16.1471 17.0938 15.6608C17.0938 15.1745 17.5299 14.78 18.0675 14.78Z" fill="#6957E7"/>
</svg>
