<svg width="24" height="24" viewBox="0 0 24 24" fill="none" xmlns="http://www.w3.org/2000/svg">
<path fill-rule="evenodd" clip-rule="evenodd" d="M9.76156 0C12.2516 0 14.269 2.16998 14.269 4.84832C14.269 5.21593 14.2299 5.57304 14.1596 5.91755C14.2787 5.93225 14.3979 5.94696 14.5151 5.96376C14.7025 5.99107 14.89 6.01838 15.0736 6.04989L15.1224 6.06249C15.1927 6.0877 15.2591 6.10241 15.3197 6.10661C15.3861 6.11081 15.4486 6.10661 15.5072 6.094C15.6751 6.05829 15.9251 5.89024 16.1946 5.70958C16.4953 5.50792 16.8176 5.29365 17.1594 5.16972C17.3898 5.08569 18.1944 5.02897 18.96 5.01217C19.831 4.99116 20.6962 5.07098 20.784 5.26004C20.8524 5.40499 20.8954 5.59195 20.8797 5.79991C20.868 5.96586 20.8192 6.14442 20.7196 6.32508C20.4911 6.73891 20.079 7.0456 19.6884 7.33339C19.292 7.62538 18.9287 7.89427 18.9893 8.09593C18.9932 8.11274 19.0322 8.14845 19.0908 8.19886C19.1768 8.27238 19.3017 8.35851 19.4326 8.44464C19.9579 8.78915 20.3681 9.15466 20.7157 9.5853C21.0594 10.0117 21.3445 10.4991 21.6238 11.0978C21.7058 11.2721 21.7839 11.4507 21.8582 11.6355C21.9382 11.833 22.0144 12.0326 22.0867 12.2342L22.1023 12.2993C22.1452 12.5745 22.2019 12.7846 22.278 12.9127C22.3152 12.9758 22.3503 13.0073 22.3835 13.0073L22.3933 13.0052H22.8034C22.8698 13.0052 22.9225 13.001 22.9694 12.9989C23.36 12.9695 23.5787 12.9547 23.8072 13.5849C23.9654 14.0219 24.0181 14.6311 23.9947 15.2382C23.9693 15.8915 23.858 16.5574 23.6959 17.0132C23.6373 17.3136 23.5104 17.5531 23.3131 17.7295C23.1159 17.9039 22.8581 18.0089 22.5358 18.0362L22.5104 18.0383H22.0535C21.8543 18.0383 21.6804 18.0299 21.5515 18.0257C21.4285 18.0215 21.4031 18.0026 21.3875 18.011C21.3641 18.0236 21.3934 18.0257 21.3602 18.0719C21.2781 18.1938 21.1473 18.387 20.8719 18.6937C20.6747 18.9122 20.4462 19.1538 20.2274 19.3765C20.0243 19.5823 19.8212 19.7777 19.6533 19.9289L19.5498 20.0214C19.3603 20.1894 19.2685 20.2713 19.2646 20.2965C19.2568 20.3449 19.3135 20.4919 19.4248 20.7797C19.4717 20.9015 19.5009 20.9751 19.5107 21.0024C19.622 21.2965 19.7333 21.5821 19.8349 21.8321C20.0048 22.2544 20.1923 22.6997 20.2528 22.8467L20.2587 22.8614C20.3974 23.2396 20.3661 23.5274 20.1728 23.7332C20.0087 23.9076 19.749 23.9748 19.3974 23.9454H17.7511C17.5206 23.9622 17.3019 23.9097 17.0969 23.7836C16.9016 23.6639 16.7238 23.4832 16.5637 23.2417L16.5481 23.2144C16.4875 23.1009 16.425 22.9518 16.3586 22.7921C16.1965 22.4056 15.9973 21.9246 15.8352 21.9939C14.7182 22.4623 13.6265 22.7417 12.4449 22.7837C11.2771 22.8257 10.0272 22.6367 8.58393 22.1661C8.1699 22.1031 8.08592 22.2922 7.95312 22.5905C7.91602 22.6745 7.87696 22.7648 7.82228 22.8762C7.78907 22.9497 7.77736 22.9791 7.76369 23.0064C7.5723 23.4454 7.38872 23.8698 6.8165 23.9937L6.75401 24L4.62724 23.9832H4.60576C4.47491 23.9727 4.35969 23.9412 4.25813 23.8824C4.14096 23.8172 4.05112 23.7227 3.98667 23.5967C3.79724 23.2249 3.92418 22.9434 4.05307 22.6598H4.05112C4.0726 22.6115 4.09604 22.5611 4.1019 22.5484L4.10385 22.5463L4.85183 20.786L4.8655 20.7566C4.94362 20.6116 4.97291 20.4919 4.95534 20.3995C4.93776 20.3091 4.87527 20.2209 4.77176 20.1348C4.62333 20.0214 4.47882 19.9037 4.34016 19.784C4.19564 19.66 4.05893 19.5319 3.92613 19.4017C3.48672 18.9689 3.0805 18.4606 2.73287 17.9018C2.39892 17.3661 2.11769 16.7821 1.91459 16.173C1.7564 15.6961 1.64508 15.2067 1.5904 14.7151C1.57868 14.6017 1.56891 14.4861 1.56306 14.3727C0.873662 14.0156 0.387376 13.3791 0.153022 12.5388C-0.0832859 11.6839 -0.0539915 10.6209 0.29754 9.43615L0.895144 9.64201C0.582672 10.6902 0.553377 11.6166 0.754532 12.3456C0.904909 12.8833 1.18418 13.314 1.57282 13.6018C1.58063 13.5009 1.59235 13.398 1.60602 13.2972C1.75444 12.1964 2.15089 11.1713 2.71725 10.2617C3.32462 9.2891 4.12533 8.45094 5.02369 7.80184C5.17602 7.6926 5.33421 7.58547 5.49631 7.48254C5.61544 7.40691 5.73261 7.33759 5.84588 7.27247C5.46311 6.56035 5.24633 5.73479 5.24633 4.85252C5.25414 2.16998 7.27154 0 9.76156 0ZM18.4776 11.8015C18.7588 11.8015 19.0127 11.9233 19.1963 12.1208C19.3799 12.3182 19.4931 12.5913 19.4931 12.8938C19.4931 13.1963 19.3799 13.4694 19.1963 13.6669C19.0127 13.8643 18.7588 13.9862 18.4776 13.9862C18.1983 13.9862 17.9444 13.8643 17.7609 13.6669C17.5773 13.4694 17.464 13.1963 17.464 12.8959C17.464 12.5934 17.5773 12.3203 17.7609 12.1229C17.9425 11.9254 18.1964 11.8015 18.4776 11.8015ZM18.751 12.6018C18.6807 12.5262 18.585 12.48 18.4776 12.48C18.3702 12.48 18.2745 12.5262 18.2042 12.6018C18.1339 12.6775 18.0909 12.7804 18.0909 12.8959C18.0909 13.0115 18.1339 13.1165 18.2022 13.19L18.2042 13.1921C18.2725 13.2656 18.3702 13.3119 18.4776 13.3119C18.585 13.3119 18.6807 13.2656 18.751 13.19C18.8213 13.1144 18.8643 13.0115 18.8643 12.8959C18.8643 12.7804 18.8213 12.6754 18.751 12.6018ZM6.46497 9.24919H7.86719C7.21491 8.92359 6.6466 8.43414 6.20913 7.83125C6.07243 7.90897 5.94353 7.98459 5.82245 8.06022C5.67403 8.15265 5.52755 8.25348 5.38303 8.35851C4.54912 8.9593 3.807 9.73444 3.24846 10.6335C2.73287 11.4612 2.37158 12.3939 2.23682 13.3896C2.18214 13.8034 2.18019 14.2214 2.22511 14.6374C2.27393 15.0806 2.37353 15.5197 2.51414 15.944C2.69967 16.4986 2.95551 17.0321 3.26213 17.5237C3.58046 18.0341 3.95542 18.5026 4.35969 18.9017C4.48468 19.0235 4.61162 19.1412 4.74247 19.2546C4.87722 19.3702 5.01393 19.4836 5.15649 19.5907L5.16821 19.5991C5.3928 19.7861 5.53537 20.0067 5.58224 20.2692C5.62911 20.5255 5.58028 20.7986 5.42209 21.0927L4.68583 22.8236C4.65654 22.893 4.64286 22.9245 4.62724 22.956H4.62529C4.56865 23.082 4.51202 23.206 4.54717 23.2732C4.54912 23.2774 4.55498 23.2816 4.56084 23.2858C4.58232 23.2984 4.61552 23.3068 4.66044 23.3089L6.73057 23.3236C6.97274 23.2543 7.08796 22.9917 7.20514 22.7186C7.23248 22.6577 7.25787 22.5968 7.26568 22.58L7.27154 22.5674C7.31255 22.4854 7.35552 22.3888 7.39458 22.2985C7.65237 21.7145 7.81251 21.349 8.69915 21.496L8.74407 21.5086C10.1307 21.9624 11.3239 22.1451 12.4332 22.1052C13.5366 22.0653 14.5639 21.8027 15.6185 21.3595C16.3352 21.0591 16.6711 21.8636 16.9406 22.5127C16.9953 22.6451 17.0461 22.7669 17.0969 22.8635C17.2004 23.0169 17.3058 23.1282 17.4132 23.1933C17.5109 23.2522 17.6144 23.2774 17.7257 23.2669L17.7511 23.2648H19.417L19.4424 23.2669C19.6123 23.2816 19.7138 23.2774 19.7392 23.2501C19.7392 23.2501 19.7216 23.2081 19.6904 23.1198C19.6396 23.0001 19.4775 22.6094 19.2705 22.0947C19.1475 21.7901 19.0264 21.4855 18.9385 21.2523C18.8662 21.0633 18.8604 21.0444 18.8545 21.0318C18.6983 20.6242 18.6182 20.4142 18.6553 20.1789C18.6983 19.9079 18.8506 19.7735 19.1631 19.4962L19.2646 19.4059C19.4131 19.2735 19.6064 19.0866 19.8095 18.8786C20.0243 18.6622 20.2431 18.427 20.4345 18.2169C20.6747 17.9501 20.7918 17.7779 20.8641 17.6686C20.952 17.5363 21.0008 17.4649 21.1199 17.4018C21.2508 17.3304 21.3563 17.3367 21.5887 17.3451C21.6902 17.3493 21.8289 17.3556 22.0671 17.3556H22.5144C22.696 17.3388 22.8327 17.2863 22.9245 17.2044C23.0124 17.1267 23.069 17.009 23.0963 16.8557L23.1139 16.7947C23.2565 16.4061 23.358 15.8074 23.3795 15.2088C23.399 14.6836 23.358 14.171 23.233 13.8244C23.1725 13.6585 23.1178 13.6606 23.0221 13.669C22.9577 13.6732 22.8854 13.6795 22.8132 13.6795H22.403V13.6774C22.1296 13.6837 21.9167 13.5408 21.7566 13.2677C21.6394 13.0661 21.5535 12.7867 21.4988 12.4401C21.4285 12.2426 21.3602 12.062 21.2918 11.8981C21.2176 11.7154 21.1434 11.5452 21.0711 11.3919C20.8172 10.8499 20.5614 10.4067 20.2489 10.0222C19.9423 9.64201 19.5791 9.32061 19.1143 9.01392C18.9697 8.91939 18.8291 8.82276 18.708 8.71772C18.5596 8.58958 18.4464 8.45094 18.3995 8.29339C18.1983 7.61488 18.7432 7.20945 19.3389 6.76832C19.6728 6.52044 20.0263 6.25996 20.1845 5.97217C20.2313 5.88814 20.2528 5.81042 20.2587 5.74109C20.2646 5.66547 20.2509 5.60245 20.2294 5.55624C20.2021 5.49742 19.6455 5.66337 18.9776 5.68018C18.2647 5.69698 17.5343 5.74319 17.3644 5.80411C17.0969 5.90074 16.8059 6.09611 16.5325 6.27886C16.2141 6.49313 15.9192 6.69059 15.636 6.75151C15.5208 6.77672 15.4017 6.78512 15.2845 6.77672C15.1752 6.76831 15.0638 6.74521 14.9506 6.7074C14.7826 6.67799 14.6107 6.65278 14.4389 6.62757C14.2885 6.60656 14.1342 6.58766 13.9799 6.56875C13.5601 7.75142 12.7242 8.71352 11.6618 9.24289H13.5132V10.1462H6.46497V9.24919ZM11.6989 3.26022L10.447 3.47239C10.3846 3.30223 10.3279 3.1846 10.2771 3.11947C10.2264 3.05435 10.1443 2.98713 10.0272 2.91991V3.96394C10.7068 4.1593 11.1618 4.36516 11.3903 4.58153C11.6911 4.87352 11.8434 5.24324 11.8434 5.69278C11.8434 5.95536 11.7887 6.19694 11.6813 6.41541C11.5719 6.63597 11.4333 6.81663 11.2653 6.96578C11.0974 7.11282 10.9158 7.21786 10.7263 7.28508C10.5369 7.3523 10.3025 7.39011 10.0272 7.40271V8.08333H9.53892V7.40271C9.20887 7.3712 8.94327 7.31449 8.73821 7.23256C8.53315 7.15063 8.35543 7.0351 8.20701 6.88805C8.05858 6.74311 7.94336 6.58556 7.86329 6.41541C7.78322 6.24735 7.72268 6.04149 7.68166 5.80201L9.03701 5.63396C9.07803 5.87134 9.13271 6.04149 9.20106 6.14652C9.26941 6.25155 9.38269 6.34608 9.53892 6.42591V5.14871C9.08388 5.01427 8.7636 4.89663 8.57416 4.7979C8.38473 4.69917 8.22068 4.53952 8.08202 4.32105C7.94336 4.10258 7.87305 3.8379 7.87305 3.5249C7.87305 3.09637 8.01367 2.73716 8.29099 2.44937C8.57026 2.16158 8.98624 1.99983 9.53697 1.97042V1.6154H10.0252V1.97042C10.5271 2.00403 10.9118 2.13007 11.1775 2.35274C11.445 2.5733 11.6188 2.8758 11.6989 3.26022ZM9.53892 2.90311C9.3944 2.95352 9.2948 3.01654 9.23817 3.09007C9.18153 3.16359 9.15419 3.25182 9.15419 3.35475C9.15419 3.45978 9.18349 3.55221 9.24012 3.62993C9.29676 3.70976 9.39636 3.77488 9.53892 3.8274V2.90311ZM10.0272 6.46162C10.2166 6.4154 10.3572 6.33978 10.4451 6.23475C10.533 6.12972 10.5779 6.01208 10.5779 5.88184C10.5779 5.7684 10.5408 5.66337 10.4646 5.56674C10.3904 5.47221 10.2439 5.38188 10.0272 5.30206V6.46162Z" fill="#6957E7"/>
</svg>
