<svg width="40" height="40" viewBox="0 0 40 40" fill="none" xmlns="http://www.w3.org/2000/svg">
<path d="M11.4166 28.5833L7.24995 26.2917C6.94439 26.125 6.77106 25.8822 6.72995 25.5633C6.68884 25.2444 6.77883 24.9733 6.99995 24.75L7.49995 24.25C7.61106 24.1389 7.74328 24.0628 7.89661 24.0217C8.04995 23.9806 8.1955 23.9733 8.33328 24L11.9999 24.5L18.4999 18L7.16661 11.8333C6.74995 11.6111 6.50717 11.2639 6.43828 10.7917C6.36939 10.3194 6.50106 9.91667 6.83328 9.58333L7.24995 9.16667C7.44439 8.97222 7.65995 8.84722 7.89661 8.79167C8.13328 8.73611 8.37606 8.73611 8.62495 8.79167L23.7499 12.6667L30.2916 6.20833C30.7638 5.73611 31.3544 5.5 32.0633 5.5C32.7722 5.5 33.3622 5.73611 33.8333 6.20833C34.3055 6.68056 34.5416 7.27111 34.5416 7.98C34.5416 8.68889 34.3055 9.27889 33.8333 9.75L27.3333 16.25L31.2083 31.2917C31.2638 31.5694 31.2572 31.8406 31.1883 32.105C31.1194 32.3694 30.9872 32.5983 30.7916 32.7917L30.5833 33C30.1944 33.3889 29.7433 33.5417 29.2299 33.4583C28.7166 33.375 28.3344 33.0972 28.0833 32.625L21.9999 21.5L15.4999 28L15.9999 31.5833C16.0277 31.7778 16.0138 31.9583 15.9583 32.125C15.9027 32.2917 15.8055 32.4444 15.6666 32.5833L15.4583 32.7917C15.1805 33.0694 14.8472 33.1872 14.4583 33.145C14.0694 33.1028 13.7777 32.9017 13.5833 32.5417L11.4166 28.5833Z" fill="#6957E7"/>
</svg>
