<svg width="40" height="40" viewBox="0 0 40 40" fill="none" xmlns="http://www.w3.org/2000/svg">
<path d="M33.2938 22.9551C33.3687 22.6469 33.6389 22.4714 33.8961 22.5611C34.1533 22.6508 34.2998 22.9746 34.2249 23.2827C34.0263 24.0979 33.7821 24.9131 33.5022 25.7127C33.2222 26.5006 32.9097 27.269 32.5614 28.0022C32.4279 28.2792 32.1349 28.3767 31.9005 28.2207C31.6694 28.0607 31.588 27.7097 31.7182 27.4289C32.0503 26.7307 32.3498 26.0052 32.6102 25.2641C32.8706 24.5113 33.1018 23.7391 33.2938 22.9551ZM19.8652 2.46215C20.1354 2.13842 20.5749 2.13842 20.8484 2.46215C21.1186 2.78589 21.1186 3.31245 20.8484 3.64009C19.8099 4.88823 20.2624 5.90624 20.7898 7.08808C21.5711 8.83157 22.463 10.8325 20.9558 13.9607C20.7637 14.3585 20.3405 14.4911 20.0085 14.2649C19.6764 14.0348 19.5657 13.5277 19.7545 13.1299C20.8777 10.8013 20.1777 9.23722 19.5657 7.87207C18.7812 6.10126 18.1008 4.58009 19.8652 2.46215ZM26.2003 0.242802C26.4705 -0.0809341 26.91 -0.0809341 27.1834 0.242802C27.4536 0.566539 27.4536 1.0931 27.1834 1.42074C26.1449 2.66498 26.5974 3.68689 27.1248 4.86872C27.9061 6.61222 28.7981 8.61315 27.2908 11.7413C27.0988 12.1391 26.6756 12.2718 26.3435 12.0455C26.0115 11.8154 25.9008 11.3084 26.0896 10.9105C27.2127 8.58195 26.5128 7.01787 25.9008 5.65271C25.113 3.88191 24.4326 2.36074 26.2003 0.242802ZM32.5353 2.46215C32.8055 2.13842 33.245 2.13842 33.5185 2.46215C33.7887 2.78589 33.7887 3.31245 33.5185 3.64009C32.4767 4.88823 32.9325 5.90624 33.4599 7.08808C34.2412 8.83157 35.1331 10.8325 33.6259 13.9607C33.4338 14.3585 33.0106 14.4911 32.6786 14.2649C32.3465 14.0348 32.2358 13.5277 32.4246 13.1299C33.5478 10.8013 32.8478 9.23722 32.2358 7.87207C31.448 6.10126 30.7676 4.58009 32.5353 2.46215ZM0.72009 8.79257C-0.0416786 7.64974 -0.145852 6.425 0.160157 5.38748C0.313162 4.86482 0.573596 4.39677 0.908904 4.01453C1.2377 3.63619 1.64137 3.34365 2.08411 3.17203C3.01191 2.81319 4.10898 2.96921 5.07584 3.95602L5.09212 3.97162L17.4953 16.691H39.3522C39.7103 16.691 40 17.0381 40 17.4671C40 17.4984 39.9967 17.5296 39.9967 17.5608C39.8307 22.292 38.9127 26.4187 37.0245 29.773C35.1169 33.1586 32.2326 35.7329 28.1568 37.3165C28.147 37.3204 28.134 37.3243 28.1242 37.3282V39.6724C28.1242 39.8518 28.0005 40 27.8508 40H15.7341C15.5388 40 15.3793 39.8089 15.3793 39.5748V37.3048C15.3402 37.2892 15.3044 37.2658 15.2686 37.2424C11.5281 35.1244 8.8912 32.3356 7.14304 29.0008C5.38836 25.6542 4.5387 21.7732 4.38569 17.4945C4.36942 17.0693 4.64613 16.7066 5.00422 16.6871C5.01399 16.6871 5.02376 16.6871 5.03352 16.6871V16.6832H8.42242L0.814497 8.90958C0.778687 8.87448 0.749389 8.83547 0.72009 8.79257ZM1.37768 5.90234C1.21491 6.4562 1.28002 7.12708 1.69997 7.78236L10.3073 16.5856H15.4086L4.25548 5.14956L4.24246 5.13786C3.65648 4.54109 3.01191 4.43968 2.47802 4.6464C2.22084 4.74391 1.9897 4.91553 1.79763 5.13396C1.61208 5.34848 1.46558 5.60981 1.37768 5.90234ZM8.23686 28.1817C9.84503 31.2474 12.2801 33.8256 15.7373 35.8031H27.8638C31.5912 34.3327 34.2216 31.9807 35.9535 28.9071C37.604 25.9779 38.4569 22.4675 38.675 18.333H5.71391C5.93202 22.0307 6.71983 25.2875 8.23686 28.1817ZM30.823 29.0866C30.9792 28.8252 31.282 28.7706 31.5001 28.9578C31.7182 29.1451 31.7638 29.5078 31.6075 29.7691C31.4057 30.1046 31.1941 30.4283 30.976 30.7404C30.7644 31.0446 30.5397 31.341 30.3054 31.6258C30.1165 31.8559 29.8105 31.8559 29.6217 31.6336C29.4296 31.4073 29.4296 31.0407 29.6152 30.8145C29.8236 30.5609 30.0286 30.2879 30.2337 29.9993C30.4356 29.7067 30.6342 29.4025 30.823 29.0866Z" fill="#6957E7"/>
</svg>
