<svg width="40" height="40" viewBox="0 0 40 40" fill="none" xmlns="http://www.w3.org/2000/svg">
<g clip-path="url(#clip0_34_156)">
<path d="M35.7295 6.57552C35.8269 6.61784 35.9134 6.67318 35.9964 6.74479C36.018 6.76432 36.0361 6.78385 36.0541 6.80338C37.0965 7.54883 38.1389 8.39193 38.8963 9.40755C39.7331 10.5306 40.1984 11.8294 39.917 13.3691C39.798 14.0137 39.5275 14.5768 39.1163 15.0749C38.8206 15.4297 38.4599 15.7422 38.0343 16.0156C38.0126 16.5137 38.0054 17.002 38.0054 17.487C38.009 18.1087 38.0307 18.75 38.0703 19.4076C38.1605 20.9505 38.4166 22.5065 38.6727 24.0495C38.9468 25.7096 39.2209 27.3568 39.2931 29.0723C39.3904 31.2695 39.1019 33.0762 38.2976 34.3522C37.4031 35.778 35.9495 36.5397 33.807 36.4714C31.2498 36.429 29.6772 35.1335 28.9666 32.7409C28.3463 30.6478 28.44 27.6595 29.1434 23.8997C29.1217 20.9212 28.6925 18.6654 27.8413 17.1452C27.2858 16.1523 26.532 15.4948 25.5798 15.1823V34.6842C25.89 34.8177 26.1713 35 26.4094 35.2181C26.9576 35.7129 27.3003 36.3997 27.3003 37.1549V39.1016C27.3003 39.5931 26.8566 39.9935 26.312 39.9935H0.988278C0.443643 39.9935 0 39.5931 0 39.1016V37.1549C0 36.3997 0.342651 35.7161 0.890893 35.2181C1.06041 35.0651 1.25158 34.9284 1.45717 34.8144V4.72656C1.45717 3.42448 2.04509 2.24284 2.99369 1.38672C3.94229 0.530599 5.25158 0 6.69432 0H20.321C21.7674 0 23.0839 0.533854 24.0361 1.39323C24.9883 2.2526 25.5798 3.44076 25.5798 4.74935V13.3301C27.3327 13.6751 28.6709 14.6875 29.6014 16.3477C30.6005 18.1283 31.0983 20.6803 31.1127 23.9844C31.1127 24.0365 31.1091 24.0885 31.0983 24.1374H31.1019C30.4346 27.6758 30.3264 30.4362 30.8747 32.2819C31.3327 33.8346 32.2994 34.6745 33.8467 34.694H33.8647C35.1848 34.7331 36.0613 34.2969 36.5771 33.4733C37.1867 32.5033 37.3995 31.0156 37.3165 29.1406C37.248 27.5521 36.9775 25.9342 36.7105 24.3066C36.4509 22.7376 36.1912 21.1556 36.0938 19.4954C36.0541 18.8411 36.0325 18.1738 36.0289 17.4837C36.0252 16.9368 36.0361 16.3965 36.0613 15.8659C34.2182 14.4076 33.0965 12.9492 32.7502 11.4974C32.422 10.1204 32.7683 8.79883 33.8323 7.53581C33.0207 7.0345 32.1948 6.62435 31.358 6.29557C30.2146 5.84635 29.0388 5.54362 27.8413 5.36784C27.3039 5.28971 26.9396 4.83073 27.0261 4.3457C27.1127 3.86068 27.6213 3.5319 28.1587 3.61003C29.5149 3.80859 30.8458 4.15039 32.1479 4.66146C33.3778 5.14974 34.5717 5.77799 35.7295 6.57552ZM23.6032 14.3978C23.56 14.2871 23.5383 14.1699 23.5491 14.0462C23.5564 13.9583 23.5744 13.877 23.6032 13.7988V4.74935C23.6032 3.93555 23.2317 3.19336 22.6366 2.65625C22.0415 2.11914 21.2191 1.78385 20.3174 1.78385H6.69432C5.79982 1.78385 4.98467 2.11589 4.39315 2.64974C3.80162 3.18359 3.43372 3.91927 3.43372 4.72656V34.4206H23.6032V14.3978ZM24.6781 36.2826C24.6492 36.2858 24.624 36.2858 24.5951 36.2858H2.61858C2.49594 36.3346 2.38413 36.403 2.29035 36.4876C2.09919 36.6602 1.98016 36.8978 1.98016 37.1615V38.2161H25.3273V37.1615C25.3273 36.901 25.2083 36.6634 25.0171 36.4876C24.9197 36.3997 24.8043 36.3314 24.6781 36.2826ZM8.31019 4.47266H18.9288C19.4806 4.47266 19.982 4.67448 20.3427 5.00325C20.3679 5.02604 20.3931 5.04883 20.4148 5.07487C20.7358 5.39714 20.9306 5.82031 20.9306 6.2793V12.3926C20.9306 12.8906 20.7069 13.3431 20.3427 13.6686C19.982 13.9941 19.4806 14.1992 18.9288 14.1992H8.31019C7.76195 14.1992 7.2642 13.9941 6.89991 13.6686L6.8963 13.6719C6.53562 13.3464 6.30839 12.8939 6.30839 12.3958V6.2793C6.30839 5.78125 6.53201 5.32878 6.8963 5.00325C6.92155 4.98047 6.9468 4.95768 6.97565 4.93815C7.33273 4.64844 7.80162 4.47266 8.31019 4.47266ZM18.9288 6.25651H8.31019C8.30658 6.25651 8.30298 6.25651 8.30298 6.25651L8.29576 6.26302C8.29216 6.26628 8.28855 6.27279 8.28855 6.27604V12.3893C8.28855 12.3926 8.29216 12.3991 8.29576 12.4023V12.4089C8.29937 12.4121 8.30298 12.4121 8.31019 12.4121H18.9288C18.9324 12.4121 18.9396 12.4089 18.9432 12.4056C18.9468 12.4023 18.9504 12.3958 18.9504 12.3926V6.2793C18.9504 6.27604 18.9504 6.27279 18.9504 6.27279L18.9432 6.26628C18.9396 6.25977 18.936 6.25651 18.9288 6.25651ZM35.4013 8.6263C34.7124 9.45963 34.4815 10.293 34.6835 11.1328C34.9252 12.1484 35.7656 13.2292 37.165 14.3717C37.3057 14.2578 37.4319 14.1374 37.5365 14.0104C37.7565 13.7467 37.9044 13.4375 37.9657 13.0859C38.1533 12.0573 37.8323 11.1751 37.2552 10.4004C36.7791 9.75586 36.1154 9.16667 35.4013 8.6263Z" fill="#6957E7"/>
</g>
<defs>
<clipPath id="clip0_34_156">
<rect width="40" height="40" fill="white"/>
</clipPath>
</defs>
</svg>
