<svg width="24" height="24" viewBox="0 0 24 24" fill="none" xmlns="http://www.w3.org/2000/svg">
<g clip-path="url(#clip0_34_574)">
<path fill-rule="evenodd" clip-rule="evenodd" d="M4.73047 15.1297V23.6109C4.72843 23.7126 4.69049 23.8094 4.62478 23.8805C4.55907 23.9516 4.47081 23.9914 4.37891 23.9914H1.35156C1.25999 23.9914 1.17202 23.9519 1.10636 23.8813C1.0407 23.8106 1.00254 23.7144 1 23.6131V15.1297H4.73047ZM9.00781 5.24911e-07C9.80366 6.28679e-07 10.5816 0.261187 11.2433 0.750524C11.905 1.23986 12.4207 1.93537 12.7252 2.74907C13.0296 3.56278 13.1092 4.45813 12.9538 5.32187C12.7984 6.18562 12.415 6.97897 11.8521 7.60157C11.2892 8.22417 10.5721 8.64806 9.79155 8.81961C9.01095 8.99117 8.20191 8.90268 7.46676 8.56536C6.7316 8.22803 6.10336 7.65701 5.6615 6.92453C5.21963 6.19204 4.98399 5.33099 4.98438 4.45029C4.98437 3.86569 5.08846 3.28681 5.29068 2.74674C5.4929 2.20666 5.78929 1.71597 6.16293 1.3027C6.53657 0.88942 6.98012 0.561659 7.46826 0.338138C7.95639 0.114617 8.47954 -0.0002834 9.00781 5.24911e-07ZM8.66406 2.29539V1.84798H9.2207V2.28026C9.28906 2.28026 9.35742 2.28026 9.41602 2.29971C9.55859 2.317 9.69141 2.33646 9.80664 2.36239C9.92188 2.38833 10.0449 2.4121 10.1445 2.43804V3.31556C9.98633 3.30043 9.80859 3.28746 9.61133 3.27882C9.41406 3.27017 9.23438 3.26369 9.07422 3.26369C8.98782 3.26317 8.90154 3.27113 8.81641 3.28746C8.75136 3.29704 8.69061 3.32877 8.64258 3.37824C8.62028 3.40479 8.60321 3.43617 8.59245 3.4704C8.58169 3.50463 8.57748 3.54096 8.58008 3.57709V3.63545C8.57776 3.67603 8.58396 3.71666 8.5982 3.75416C8.61243 3.79165 8.6343 3.825 8.66211 3.85159C8.73602 3.90727 8.82495 3.93321 8.91406 3.92507H9.25391C9.46231 3.91646 9.66909 3.96864 9.85352 4.07637C10.008 4.17073 10.1337 4.31363 10.2148 4.48703C10.2969 4.66945 10.3378 4.87118 10.334 5.07493V5.26297C10.3555 5.54958 10.302 5.837 10.1797 6.09078C10.0689 6.28309 9.89779 6.42322 9.69922 6.48415C9.54308 6.53276 9.38264 6.56247 9.2207 6.57277V7.0634H8.66406V6.56628H8.61719C8.50977 6.56628 8.40234 6.54683 8.29883 6.5317C8.19531 6.51657 8.10352 6.49928 7.99805 6.47983C7.89258 6.46037 7.80273 6.43876 7.71875 6.41282V5.53314C7.83594 5.53314 7.96289 5.55476 8.09766 5.56124C8.23242 5.56772 8.37109 5.57421 8.50977 5.57853H8.90039C8.9954 5.57969 9.09028 5.57028 9.18359 5.55043C9.24647 5.53726 9.30509 5.50595 9.35352 5.45965C9.37277 5.43637 9.38768 5.40911 9.3974 5.37944C9.40712 5.34977 9.41146 5.31827 9.41016 5.28674V5.21974C9.41217 5.18348 9.40588 5.14723 9.39189 5.11437C9.37789 5.0815 9.35663 5.05307 9.33008 5.0317C9.27324 4.98699 9.2044 4.96489 9.13477 4.96902H8.86133C8.53752 4.99389 8.21629 4.89046 7.95508 4.67723C7.74935 4.48415 7.64648 4.15994 7.64648 3.70461V3.52305C7.63638 3.34944 7.66208 3.17555 7.72163 3.01454C7.78118 2.85353 7.87303 2.70961 7.99023 2.59366C8.18561 2.42861 8.41924 2.32819 8.66406 2.30403V2.29539ZM1 12.361L5.13477 8.35807L5.29883 8.54827C5.97867 9.30159 6.83279 9.83327 7.76758 10.085L5.44922 12.361H1ZM12.5039 8.75793C13.0898 9.45389 13.6602 10.1369 14.2441 10.7745L20.6367 3.67435L18.5781 1.38761L25 0.851586L24.6328 8.09222L22.6641 5.90706C21.2461 7.49568 17.8926 10.9993 16.4746 12.5706C14.6797 14.5548 13.8242 14.5915 12.0293 12.6052L10.0234 10.1347C10.9469 9.9304 11.8037 9.45484 12.5039 8.75793ZM23.002 10.2709V23.6153C23.0014 23.7181 22.9642 23.8165 22.8983 23.889C22.8324 23.9615 22.7433 24.0022 22.6504 24.0022H19.623C19.5303 24.0016 19.4415 23.9607 19.3757 23.8884C19.3099 23.816 19.2725 23.7179 19.2715 23.6153V13.5238C19.8574 12.9035 20.5234 12.1837 21.2109 11.451L22.6445 9.92291L22.7051 9.98559C22.7971 10.0885 22.8964 10.1832 23.002 10.2687V10.2709ZM16.9121 15.8754V23.6131C16.9111 23.7157 16.8737 23.8138 16.8079 23.8862C16.7421 23.9586 16.6533 23.9994 16.5605 24H13.5332C13.4403 24 13.3512 23.9593 13.2853 23.8868C13.2194 23.8143 13.1822 23.7159 13.1816 23.6131V16.6967C13.5416 16.7932 13.9109 16.8404 14.2812 16.8372C15.2258 16.8217 16.1434 16.486 16.9102 15.8754H16.9121ZM10.8203 15.2486V23.6131C10.8198 23.7159 10.7825 23.8143 10.7167 23.8868C10.6508 23.9593 10.5617 24 10.4688 24H7.44531C7.35257 23.9994 7.26373 23.9586 7.19797 23.8862C7.1322 23.8138 7.09477 23.7157 7.09375 23.6131V14.5353C7.15625 14.4856 7.21484 14.4316 7.27344 14.3754L8.78711 12.8905L10.0059 14.3905L10.0996 14.5007C10.3457 14.7731 10.5879 15.0238 10.8242 15.2486H10.8203Z" fill="#6957E7"/>
</g>
<defs>
<clipPath id="clip0_34_574">
<rect width="24" height="24" fill="white"/>
</clipPath>
</defs>
</svg>
