<svg width="24" height="24" viewBox="0 0 24 24" fill="none" xmlns="http://www.w3.org/2000/svg">
<path fill-rule="evenodd" clip-rule="evenodd" d="M2.24817 23.9956V13.735C1.79133 13.9449 1.36359 13.9496 1.00812 13.805C0.730776 13.6933 0.4964 13.4925 0.324524 13.2339C0.152648 12.9753 0.0432725 12.6602 0.0102645 12.3127C-0.040517 11.774 0.0942493 11.1656 0.478822 10.594C0.498353 10.566 0.519838 10.538 0.545228 10.5147L11.6888 0.128717C11.8334 -0.0296288 12.056 -0.0461863 12.2164 0.103065L23.3854 10.4706C23.403 10.487 23.4186 10.5033 23.434 10.5243C23.9516 11.1889 24.0807 11.9258 23.9557 12.5483C23.8932 12.8561 23.7702 13.1315 23.6002 13.3598C23.4305 13.5881 23.2137 13.7656 22.9674 13.8705C22.5768 14.0382 22.1121 14.0335 21.6414 13.7679V23.9674H20.5479V13.1942C20.5479 12.9585 12.8861 5.72749 12.0406 4.94183C11.1441 5.75548 3.34212 12.9286 3.34212 13.2315V24L2.24817 23.9956ZM7.98023 21.6843C8.32887 22.3317 8.6773 22.9331 9.02594 23.4879L9.00426 23.6789C8.51031 23.858 8.02359 23.9653 7.54429 23.9998L7.4064 23.8608L7.31929 23.6439C7.28042 23.5515 7.20308 23.3564 7.08687 23.0586C6.97046 22.7607 6.8687 22.4816 6.78179 22.2216H6.29506L6.34604 23.8953H4.88607L4.95873 22.2479L4.88607 18.2846L7.11597 18.276C7.6437 18.276 8.05054 18.425 8.33609 18.7226C8.62183 19.0201 8.76461 19.4497 8.76461 20.0103C8.76461 20.3399 8.69566 20.6491 8.55758 20.9383C8.41949 21.2274 8.22711 21.4763 7.98023 21.6843ZM7.23198 20.1841C7.23198 19.953 7.18237 19.7809 7.08315 19.6682C6.98394 19.5554 6.823 19.4931 6.60014 19.4817L6.33882 19.5075L6.30991 20.9557L6.83999 20.9903C6.97554 20.9154 7.07495 20.814 7.13784 20.6869C7.20054 20.5598 7.23198 20.3921 7.23198 20.1841ZM12.1101 22.1959L10.309 22.2134C10.3527 22.4156 10.4349 22.5649 10.556 22.66C10.6771 22.7554 10.8441 22.803 11.0572 22.803C11.2943 22.803 11.6406 22.7307 12.0957 22.5861L12.1974 22.6728L11.9797 23.8176C11.5972 23.9391 11.2414 23.9998 10.9121 23.9998C10.3115 23.9998 9.84313 23.8088 9.50661 23.4272C9.17008 23.0455 9.00172 22.5194 9.00172 21.8489C9.00172 21.1838 9.16149 20.6607 9.48121 20.2795C9.80094 19.8977 10.2388 19.7069 10.7959 19.7069C11.2752 19.7069 11.6469 19.8574 11.9107 20.158C12.1746 20.4586 12.3066 20.8779 12.3066 21.4154C12.3066 21.5891 12.2922 21.7771 12.2629 21.9793L12.1101 22.1959ZM11.108 21.2421C11.108 20.9357 10.999 20.7825 10.781 20.7825C10.5148 20.7825 10.3527 20.9877 10.2945 21.3984L11.0935 21.3636L11.108 21.2421ZM14.766 23.8958L14.8387 21.6066C14.8387 21.2538 14.7248 21.0775 14.4973 21.0775C14.3859 21.0775 14.2721 21.1178 14.1559 21.199V22.0749L14.2141 23.896H12.7976L12.8631 22.2486L12.8121 19.8984L14.1559 19.7855V20.3928H14.2066C14.4586 20.0922 14.7418 19.8783 15.0566 19.751C15.4197 19.751 15.6969 19.8494 15.8883 20.046C16.0795 20.2426 16.1701 20.526 16.1607 20.896L16.1316 22.0756L16.1826 23.8967H14.766V23.8958ZM18.5764 22.6644C18.7024 22.6644 18.8477 22.6299 19.0119 22.5604L19.099 22.6906L18.9684 23.6273C18.8666 23.7024 18.7455 23.7703 18.6055 23.8312C18.4649 23.892 18.3293 23.9338 18.1986 23.9569C17.816 23.9569 17.5158 23.8528 17.2981 23.6446C17.0801 23.4363 16.9713 23.1591 16.9713 22.8123L17.0149 21.9103L17.0074 20.8266H16.5572L16.5207 20.7398L16.5789 19.8464H17.0072L17.0002 19.1095L18.3147 18.6932L18.4018 18.7886L18.3654 19.8464H19.0774L19.1135 19.9331L19.0555 20.8266H18.3365L18.2928 22.292C18.2928 22.4308 18.3133 22.5275 18.3543 22.5826C18.3961 22.6369 18.4697 22.6644 18.5764 22.6644ZM12.2596 9.25284V12.18H14.4588V12.1719C14.4588 11.365 14.1822 10.6311 13.7369 10.0989C13.3482 9.6353 12.8318 9.32467 12.2596 9.25284ZM12.2596 12.7983V14.6156H14.4588V12.7983H12.2596ZM11.7418 14.6138V12.7983H9.54215V14.6156H11.7416L11.7418 14.6138ZM11.7418 12.18V9.25284C11.1681 9.32607 10.6531 9.6353 10.2646 10.0989C9.8193 10.6311 9.54235 11.365 9.54235 12.1719V12.18H11.7418ZM12.0006 8.61853C12.8195 8.61853 13.5635 9.01871 14.1016 9.66142C14.6414 10.3058 14.9752 11.194 14.9752 12.17V15.2306H9.02457V12.1702C9.02457 11.1924 9.35993 10.3041 9.89801 9.66165C10.4377 9.01871 11.1816 8.61853 12.0006 8.61853ZM18.3113 0.828331L21.6647 0.991574V6.39912L18.3113 3.75691V0.828331Z" fill="#6957E7"/>
</svg>
