<svg width="24" height="24" viewBox="0 0 24 24" fill="none" xmlns="http://www.w3.org/2000/svg">
<path d="M14.63 2.62567C14.63 1.18413 13.4544 0 12.0043 0C10.5542 0 9.37004 1.18413 9.37862 2.62567V9.37862H2.62567C1.18413 9.37862 0 10.5542 0 12.0043C0 13.4458 1.18413 14.63 2.62567 14.63H9.37862V21.3743C9.37862 22.8159 10.5542 24 12.0043 24C13.4458 24 14.63 22.8245 14.63 21.3743V14.63H21.3743C22.8159 14.63 24 13.4544 24 12.0043C24 10.5627 22.8245 9.37862 21.3743 9.37862H14.63V2.62567Z" fill="#FAFAFB"/>
</svg>
