<svg width="24" height="24" viewBox="0 0 24 24" fill="none" xmlns="http://www.w3.org/2000/svg">
<g clip-path="url(#clip0_34_572)">
<path fill-rule="evenodd" clip-rule="evenodd" d="M16.1406 21.2301C16.1406 22.596 14.6309 23.6886 12.7715 23.6886C10.9121 23.6886 9.40234 22.5823 9.40234 21.2301C9.40443 20.9674 9.45779 20.7105 9.55664 20.4871C9.98438 21.4924 11.2617 22.219 12.7715 22.219C13.7676 22.219 15.4258 21.8065 15.9863 20.4871C16.0846 20.7099 16.1379 20.9657 16.1406 21.2274V21.2301ZM8.25781 20.9734C8.25781 22.6424 6.4082 24 4.12891 24C1.84961 24 0 22.6424 0 20.9734C0.0040967 20.6517 0.0716895 20.3378 0.195313 20.0665C0.720703 21.2957 2.28516 22.1889 4.13477 22.1889C5.35547 22.1889 7.38672 21.6836 8.07422 20.0665C8.19756 20.338 8.26513 20.6517 8.26953 20.9734H8.25781ZM8.28125 17.8211C8.28125 19.4901 6.43164 20.8477 4.15234 20.8477C1.87305 20.8477 0.0234375 19.4901 0.0234375 17.8211C0.0281354 17.4995 0.0956803 17.1859 0.21875 16.9142C0.744141 18.1434 2.30859 19.0367 4.1582 19.0367C5.37891 19.0367 7.41016 18.5313 8.09766 16.9142C8.22018 17.1862 8.28768 17.4996 8.29297 17.8211H8.28125ZM5.64258 9.96222L5.59375 10.7134L3.56836 10.4676C3.73708 10.7667 3.85586 11.1148 3.91602 11.4865L3.42773 11.4264C3.38239 11.1876 3.30843 10.9613 3.20898 10.7571C3.10784 10.5279 2.96127 10.3448 2.78711 10.2299L2.82617 9.62076L5.64258 9.96222ZM4.21484 8.78489C6.05859 8.78489 7.54492 9.63169 7.54492 10.6479C7.54492 11.664 6.02539 12.5081 4.15234 12.5081C2.2793 12.5081 0.759766 11.6722 0.759766 10.6533C0.759766 9.63442 2.23047 8.80947 4.0625 8.79035L4.21484 8.78489ZM4.20117 8.16754C6.45703 8.16754 8.28125 9.53335 8.28125 11.1942C8.28125 12.855 6.43164 14.2235 4.15234 14.2235C1.87305 14.2235 0.0234375 12.8659 0.0234375 11.1996C0.0234375 9.53335 1.84766 8.17847 4.10156 8.16754H4.20117ZM8.28125 14.5677C8.28125 16.2367 6.43164 17.5944 4.15234 17.5944C1.87305 17.5944 0.0234375 16.2367 0.0234375 14.5677C0.0241556 14.2619 0.0835091 13.9619 0.195313 13.6991C0.705078 14.9447 2.28125 15.857 4.15039 15.857C5.37305 15.857 7.43164 15.3435 8.10352 13.6991C8.21582 13.9619 8.27646 14.2616 8.2793 14.5677H8.28125ZM8.59375 2.93087e-06C8.78163 -0.0236187 8.96867 0.0564447 9.11492 0.223092C9.26116 0.389739 9.35502 0.629758 9.37644 0.891881C9.39785 1.154 9.34514 1.41745 9.22955 1.62595C9.11396 1.83445 8.94466 1.97147 8.75781 2.00774L7.46289 2.22081L12.2012 7.0148L14.2188 4.48532C14.333 4.34072 14.4776 4.25146 14.631 4.2308C14.7843 4.21013 14.9384 4.25915 15.0703 4.37059L22.0176 10.2791C22.1807 10.4171 22.298 10.6401 22.3436 10.8991C22.3892 11.158 22.3594 11.4317 22.2607 11.6599C22.1621 11.8881 22.0026 12.0522 21.8175 12.1159C21.6323 12.1797 21.4366 12.138 21.2734 12L14.7813 6.48213L12.7285 9.05805C12.6061 9.21055 12.4502 9.30014 12.2866 9.31206C12.1229 9.32398 11.9612 9.25751 11.8281 9.12361L6.48242 3.7232L6.65234 5.7364C6.6741 6.00228 6.61945 6.26936 6.5004 6.47888C6.38136 6.6884 6.20768 6.82321 6.01758 6.85363C5.82747 6.88406 5.63651 6.80762 5.4867 6.64113C5.33689 6.47464 5.24051 6.23174 5.21875 5.96586L4.85742 1.68541V1.63351C4.83593 1.36856 4.89018 1.10246 5.00834 0.893195C5.12651 0.683929 5.29902 0.548452 5.48828 0.516279L8.59375 2.93087e-06ZM21.8496 17.3731L21.8105 17.985L20.1562 17.7856C20.2926 18.0263 20.3893 18.3061 20.4395 18.6051L20.0488 18.5559C20.0113 18.361 19.9506 18.1763 19.8691 18.0096C19.7864 17.8234 19.667 17.6745 19.5254 17.5807L19.5566 17.0835L21.8555 17.3567L21.8496 17.3731ZM20.8164 16.417C22.2598 16.4689 23.4023 17.1273 23.4023 17.9331C23.4023 18.7389 22.1621 19.4519 20.6328 19.4519C19.1035 19.4519 17.8633 18.769 17.8633 17.9331C17.8633 17.0972 19.0352 16.4525 20.498 16.4143C20.6055 16.4143 20.7109 16.4143 20.8164 16.4143V16.417ZM20.8164 15.9117C22.5957 15.9772 24.0117 17.059 24.0117 18.3701C24.0117 19.7359 22.502 20.8286 20.6426 20.8286C18.7832 20.8286 17.2734 19.7196 17.2734 18.3701C17.2734 17.0207 18.6992 15.9636 20.4883 15.9117C20.5977 15.9117 20.7051 15.9117 20.8164 15.9117ZM23.8691 20.5281C23.9604 20.7433 24.0096 20.9882 24.0117 21.2383C24.0117 22.6041 22.502 23.6968 20.6426 23.6968C18.7832 23.6968 17.2734 22.6041 17.2734 21.2383C17.2744 20.988 17.3236 20.7426 17.416 20.5281C17.832 21.547 19.1172 22.29 20.6426 22.29C21.6504 22.29 23.3242 21.8639 23.8691 20.5281ZM13.9883 14.606L13.9492 15.2178L12.3047 15.0239C12.4369 15.2664 12.5302 15.5459 12.5781 15.8434L12.1875 15.7942C12.15 15.5993 12.0892 15.4146 12.0078 15.2479C11.9264 15.0605 11.8076 14.9105 11.666 14.8163L11.6973 14.3219L13.9961 14.595L13.9883 14.606ZM12.9512 13.6581C14.3965 13.71 15.5391 14.371 15.5391 15.1741C15.5391 15.9772 14.2988 16.6929 12.7715 16.6929C11.2441 16.6929 10.002 16.01 10.002 15.1741C10.002 14.3383 11.1641 13.6991 12.623 13.6581H12.9512ZM12.9375 13.1555C14.7188 13.2183 16.1406 14.3 16.1406 15.6139C16.1406 16.9797 14.6309 18.0724 12.7715 18.0724C10.9121 18.0724 9.40234 16.9797 9.40234 15.6139C9.40234 14.2481 10.834 13.1992 12.627 13.1555C12.7305 13.1555 12.8223 13.1555 12.9375 13.1555ZM16.1406 18.4794C16.1406 19.8452 14.6309 20.9379 12.7715 20.9379C10.9121 20.9379 9.40234 19.8288 9.40234 18.4794C9.40058 18.2242 9.44998 17.9734 9.54492 17.7555C9.95899 18.7717 11.2461 19.5174 12.7715 19.5174C13.7695 19.5174 15.4512 19.0967 15.998 17.7555C16.0888 17.97 16.1379 18.2138 16.1406 18.463V18.4794Z" fill="#FAFAFB"/>
</g>
<defs>
<clipPath id="clip0_34_572">
<rect width="24" height="24" fill="white"/>
</clipPath>
</defs>
</svg>
