<svg width="24" height="24" viewBox="0 0 24 24" fill="none" xmlns="http://www.w3.org/2000/svg">
<path fill-rule="evenodd" clip-rule="evenodd" d="M16.1341 20.9328C16.1341 22.4452 14.6249 23.6552 12.7663 23.6552C10.9077 23.6552 9.39852 22.4452 9.39852 20.9328C9.40096 20.6429 9.45428 20.3595 9.55275 20.113C9.98031 21.2262 11.2571 22.0308 12.7663 22.0308C13.762 22.0308 15.4195 21.574 15.9798 20.113C16.078 20.3597 16.1313 20.643 16.1341 20.9328ZM8.25445 20.6484C8.25445 22.4966 6.4056 24 4.12723 24C1.84886 24 0 22.4966 0 20.6484C0.00480967 20.2943 0.0723465 19.949 0.195233 19.6502C0.72041 21.0114 2.28423 22.0006 4.13308 22.0006C5.35329 22.0006 7.38371 21.4379 8.07094 19.6502C8.19451 19.9507 8.26207 20.2982 8.26617 20.6545L8.25445 20.6484ZM8.27788 17.1577C8.27788 19.0059 6.42902 20.5093 4.15065 20.5093C1.87229 20.5093 0.023428 19.0059 0.023428 17.1577C0.027825 16.8016 0.0953662 16.4541 0.218661 16.1535C0.743838 17.5147 2.30765 18.5038 4.15651 18.5038C5.37672 18.5038 7.40714 17.9442 8.09436 16.1535C8.21684 16.4547 8.28431 16.8018 8.2896 17.1577H8.27788ZM5.64028 8.45817L5.59148 9.29001L3.56691 9.01777C3.73556 9.34905 3.85429 9.73454 3.91442 10.1461L3.42634 10.0795C3.38101 9.8151 3.30708 9.56452 3.20768 9.33841C3.10599 9.08688 2.95955 8.88624 2.78598 8.76066L2.82502 8.08611L5.64028 8.45817ZM4.21313 7.15445C6.05613 7.15445 7.54185 8.09216 7.54185 9.21741C7.54185 10.3427 6.02294 11.2774 4.15065 11.2774C2.27837 11.2774 0.759457 10.3487 0.759457 9.21439C0.759457 8.08006 2.22956 7.1726 4.06085 7.15142L4.21313 7.15445ZM4.19946 6.47082C6.45441 6.47082 8.27788 7.98326 8.27788 9.82239C8.27788 11.6615 6.42902 13.1709 4.15065 13.1709C1.87229 13.1709 0.023428 11.6706 0.023428 9.81937C0.023428 7.96814 1.8469 6.492 4.1038 6.4678L4.19946 6.47082ZM8.27788 13.5551C8.27788 15.4033 6.42902 16.9067 4.15065 16.9067C1.87229 16.9067 0.023428 15.4154 0.023428 13.5551C0.0241458 13.2164 0.0834751 12.8842 0.195233 12.5932C0.704791 13.9725 2.28032 14.9828 4.1487 14.9828C5.37086 14.9828 7.42862 14.4142 8.10022 12.5932C8.21247 12.8842 8.27309 13.2161 8.27593 13.5551H8.27788ZM18.4144 11.3802C18.2275 11.4432 18.032 11.3885 17.8711 11.2283C17.7102 11.068 17.597 10.8153 17.5563 10.5257C17.5157 10.2361 17.551 9.9333 17.6544 9.68398C17.7578 9.43466 17.9209 9.25922 18.1079 9.19624L19.3808 8.76066L14.3282 4.22334L12.5183 7.27544C12.415 7.4621 12.275 7.59102 12.1198 7.64239C11.9646 7.69377 11.8028 7.66474 11.6593 7.55978L4.33417 2.10592C4.16689 1.97447 4.03942 1.74688 3.979 1.47176C3.91857 1.19665 3.92998 0.895829 4.01079 0.633575C4.0916 0.37132 4.2354 0.168426 4.41147 0.0682407C4.58754 -0.031945 4.78191 -0.0214783 4.95306 0.0974047L11.7999 5.18828L13.6663 2.03938C13.7772 1.85188 13.9261 1.72868 14.0884 1.69017C14.2506 1.65167 14.4165 1.70016 14.5585 1.82764L20.2574 6.96993L19.945 4.76782C19.9112 4.48181 19.9505 4.18662 20.0547 3.94477C20.1589 3.70291 20.3197 3.53337 20.5032 3.47204C20.6866 3.41072 20.8783 3.46242 21.0376 3.61619C21.1968 3.76997 21.3112 4.01376 21.3565 4.29594L22.0184 8.9724V9.02382C22.0385 9.16763 22.04 9.31616 22.023 9.46091C22.006 9.60567 21.9708 9.7438 21.9193 9.86742C21.8678 9.99104 21.801 10.0977 21.7229 10.1813C21.6448 10.265 21.5568 10.3239 21.4639 10.3548L18.4144 11.3802ZM21.8388 16.6677L21.7997 17.3453L20.1461 17.1245C20.2824 17.391 20.379 17.7009 20.4292 18.0319L20.0387 17.9775C20.0012 17.7616 19.9405 17.5571 19.8591 17.3725C19.7764 17.1664 19.6571 17.0015 19.5155 16.8976L19.5467 16.3471L21.8446 16.6495L21.8388 16.6677ZM20.806 15.609C22.2488 15.6665 23.3909 16.3955 23.3909 17.2848C23.3909 18.1741 22.1511 18.9696 20.6225 18.9696C19.0938 18.9696 17.8541 18.2134 17.8541 17.2848C17.8541 16.3561 19.0255 15.6483 20.4878 15.606C20.5951 15.606 20.7006 15.606 20.806 15.606V15.609ZM20.806 15.0494C22.5846 15.122 24 16.3198 24 17.7718C24 19.2842 22.4908 20.5093 20.6322 20.5093C18.7736 20.5093 17.2645 19.2812 17.2645 17.7718C17.2645 16.2624 18.6897 15.1069 20.478 15.0494C20.5873 15.0494 20.6947 15.0494 20.806 15.0494ZM23.8575 20.1614C23.9487 20.3997 23.9978 20.6709 24 20.9479C24 22.4603 22.4908 23.6703 20.6322 23.6703C18.7736 23.6703 17.2645 22.4603 17.2645 20.9479C17.2654 20.6706 17.3146 20.3989 17.407 20.1614C17.8228 21.2897 19.1075 22.1125 20.6322 22.1125C21.6396 22.1125 23.3128 21.6406 23.8575 20.1614ZM13.9826 13.6005L13.9435 14.278L12.2997 14.0512C12.4353 14.3183 12.5319 14.628 12.5828 14.9586L12.1923 14.9042C12.1548 14.6883 12.0941 14.4838 12.0127 14.2992C11.9313 14.0917 11.8125 13.9256 11.671 13.8213L11.6847 13.298L13.9826 13.6005ZM12.9459 12.5387C14.3906 12.5962 15.5327 13.3282 15.5327 14.2175C15.5327 15.1069 14.293 15.8994 12.7663 15.8994C11.2396 15.8994 9.99788 15.1401 9.99788 14.2054C9.99788 13.2708 11.1595 12.572 12.6179 12.5266L12.9459 12.5387ZM12.9322 11.9791C14.7128 12.0517 16.1341 13.2496 16.1341 14.7015C16.1341 16.1535 14.6249 17.4239 12.7663 17.4239C10.9077 17.4239 9.39852 16.1988 9.39852 14.7015C9.39852 13.2042 10.8296 12.0275 12.6218 11.9791C12.7253 11.9791 12.817 11.9791 12.9322 11.9791ZM16.1341 17.8776C16.1341 19.3901 14.6249 20.6152 12.7663 20.6152C10.9077 20.6152 9.39852 19.3871 9.39852 17.8776C9.39893 17.6012 9.44822 17.3303 9.54104 17.0942C9.95689 18.2164 11.2415 19.0452 12.7663 19.0452C13.7639 19.0452 15.4449 18.5794 15.9915 17.0942C16.0823 17.3317 16.1314 17.6017 16.1341 17.8776Z" fill="#6957E7"/>
</svg>
